<?xml version="1.0" encoding="UTF-8" standalone="no"?>
<svg
   viewBox="0 0 100 100"
   version="1.1"
   id="svg5"
   sodipodi:docname="fox.svg"
   inkscape:version="1.3.2 (091e20e, 2023-11-25)"
   xmlns:inkscape="http://www.inkscape.org/namespaces/inkscape"
   xmlns:sodipodi="http://sodipodi.sourceforge.net/DTD/sodipodi-0.dtd"
   xmlns="http://www.w3.org/2000/svg"
   xmlns:svg="http://www.w3.org/2000/svg">
  <defs
     id="defs5" />
  <sodipodi:namedview
     id="namedview5"
     pagecolor="#ffffff"
     bordercolor="#000000"
     borderopacity="0.25"
     inkscape:showpageshadow="2"
     inkscape:pageopacity="0.0"
     inkscape:pagecheckerboard="0"
     inkscape:deskcolor="#d1d1d1"
     inkscape:zoom="5.9372464"
     inkscape:cx="36.212073"
     inkscape:cy="49.686333"
     inkscape:window-width="1728"
     inkscape:window-height="1051"
     inkscape:window-x="0"
     inkscape:window-y="38"
     inkscape:window-maximized="1"
     inkscape:current-layer="svg5" />
  <path
     d="M 50,24 C 30,24 15,39 15,59 15,79 30,94 50,94 70,94 85,79 85,59 85,39 70,24 50,24"
     fill="#ff7f50"
     id="path1" />
  <circle
     cx="35"
     cy="49"
     r="5"
     fill="#000000"
     id="circle3" />
  <circle
     cx="65"
     cy="49"
     r="5"
     fill="#000000"
     id="circle4" />
  <path
     d="m 34.9083,73.248801 q 14.839058,-3.996499 29.678114,0"
     fill="none"
     stroke="#000000"
     stroke-width="2.31028"
     id="path4" />
  <path
     d="m 50.142162,68.997979 4.713654,-10.13812 -9.995957,0.284325 z"
     fill="#ffffff"
     id="path5" />
  <path
     sodipodi:type="star"
     style="fill:#ff7f50;fill-opacity:1"
     id="path6"
     inkscape:flatsided="false"
     sodipodi:sides="3"
     sodipodi:cx="24.927382"
     sodipodi:cy="21.558817"
     sodipodi:r1="13.031166"
     sodipodi:r2="6.5155835"
     sodipodi:arg1="-2.0402242"
     sodipodi:arg2="-0.99302667"
     inkscape:rounded="0"
     inkscape:randomized="0"
     d="m 19.032393,9.9372679 9.45352,6.1635561 9.453519,6.163558 -10.064556,5.10521 -10.064557,5.105209 0.611037,-11.268766 z"
     inkscape:transform-center-x="-0.72341126"
     inkscape:transform-center-y="-2.3355295"
     transform="matrix(0.96775069,0.27139695,-0.36639328,1.6151943,15.608455,-17.74366)" />
  <path
     sodipodi:type="star"
     style="fill:#ff7f50;fill-opacity:1"
     id="path6-3"
     inkscape:flatsided="false"
     sodipodi:sides="3"
     sodipodi:cx="24.927382"
     sodipodi:cy="21.558817"
     sodipodi:r1="13.031166"
     sodipodi:r2="6.5155835"
     sodipodi:arg1="-2.0402242"
     sodipodi:arg2="-0.99302667"
     inkscape:rounded="0"
     inkscape:randomized="0"
     d="m 19.032393,9.9372679 9.45352,6.1635561 9.453519,6.163558 -10.064556,5.10521 -10.064557,5.105209 0.611037,-11.268766 z"
     inkscape:transform-center-x="0.61459954"
     inkscape:transform-center-y="-2.3355295"
     transform="matrix(-0.82218663,0.27139695,0.3112823,1.6151943,81.179313,-19.405519)" />
</svg>
