<?xml version="1.0" encoding="UTF-8" standalone="no"?>
<svg
   viewBox="0 0 100 100"
   version="1.1"
   id="svg4"
   sodipodi:docname="pig.svg"
   inkscape:version="1.3.2 (091e20e, 2023-11-25)"
   xmlns:inkscape="http://www.inkscape.org/namespaces/inkscape"
   xmlns:sodipodi="http://sodipodi.sourceforge.net/DTD/sodipodi-0.dtd"
   xmlns="http://www.w3.org/2000/svg"
   xmlns:svg="http://www.w3.org/2000/svg">
  <defs
     id="defs4" />
  <sodipodi:namedview
     id="namedview4"
     pagecolor="#ffffff"
     bordercolor="#000000"
     borderopacity="0.25"
     inkscape:showpageshadow="2"
     inkscape:pageopacity="0.0"
     inkscape:pagecheckerboard="0"
     inkscape:deskcolor="#d1d1d1"
     inkscape:zoom="7.7668402"
     inkscape:cx="46.865906"
     inkscape:cy="47.767173"
     inkscape:window-width="1728"
     inkscape:window-height="1051"
     inkscape:window-x="0"
     inkscape:window-y="38"
     inkscape:window-maximized="1"
     inkscape:current-layer="svg4" />
  <path
     d="M 50,18 C 30,18 15,33 15,53 15,73 30,88 50,88 70,88 85,73 85,53 85,33 70,18 50,18"
     fill="#ffc0cb"
     id="path1" />
  <circle
     cx="35"
     cy="43"
     r="5"
     fill="#000000"
     id="circle1" />
  <circle
     cx="65"
     cy="43"
     r="5"
     fill="#000000"
     id="circle2" />
  <path
     d="m 40,63 q 10,10 20,0"
     fill="none"
     stroke="#000000"
     stroke-width="3"
     id="path2" />
  <ellipse
     cx="50"
     cy="58"
     rx="15"
     ry="10"
     fill="#ffb6c1"
     id="ellipse2" />
  <circle
     cx="45"
     cy="58"
     r="3"
     fill="#000000"
     id="circle3" />
  <circle
     cx="55"
     cy="58"
     r="3"
     fill="#000000"
     id="circle4" />
  <path
     sodipodi:type="star"
     style="fill:#ffc0cb;fill-opacity:1"
     id="path4"
     inkscape:flatsided="false"
     sodipodi:sides="3"
     sodipodi:cx="9.5276842"
     sodipodi:cy="7.2101393"
     sodipodi:r1="15.945048"
     sodipodi:r2="7.9725242"
     sodipodi:arg1="0.82537685"
     sodipodi:arg2="1.8725744"
     inkscape:rounded="0"
     inkscape:randomized="0"
     d="M 20.342893,18.926616 7.1581034,14.822381 -6.0266865,10.718147 4.1200797,1.3519011 14.266846,-8.0143447 17.30487,5.4561355 Z"
     inkscape:transform-center-x="-3.2678971"
     inkscape:transform-center-y="0.80591826"
     transform="rotate(-53.092377,32.603615,-2.8380913)" />
  <path
     sodipodi:type="star"
     style="fill:#ffc0cb;fill-opacity:1"
     id="path4-9"
     inkscape:flatsided="false"
     sodipodi:sides="3"
     sodipodi:cx="9.5276842"
     sodipodi:cy="7.2101393"
     sodipodi:r1="15.945048"
     sodipodi:r2="7.9725242"
     sodipodi:arg1="0.82537685"
     sodipodi:arg2="1.8725744"
     inkscape:rounded="0"
     inkscape:randomized="0"
     d="M 20.342893,18.926616 7.1581034,14.822381 -6.0266865,10.718147 4.1200797,1.3519011 14.266846,-8.0143447 17.30487,5.4561355 Z"
     inkscape:transform-center-x="3.8142139"
     inkscape:transform-center-y="0.19725368"
     transform="rotate(14.127126,-20.705541,263.76679)" />
</svg>
